<svg width="117" height="137" viewBox="0 0 117 137" fill="none" xmlns="http://www.w3.org/2000/svg">
<path d="M2.8321 58.6077C0.440476 47.1219 7.60487 36.0464 11.486 31.9443C19.8626 33.8376 39.0073 36.0464 48.5738 29.7355L50.0352 28C65.6437 36.8352 66.9234 52.0865 65.6122 58.6077C65.6122 79.9384 41.2764 83.6934 29.1085 82.9045C2.04533 83.5356 0.314584 66.9696 2.8321 58.6077Z" fill="#E9CC20"/>
<path fill-rule="evenodd" clip-rule="evenodd" d="M11.1559 29.3382L12.5507 29.6497C16.5838 30.5504 23.2742 31.5365 30.0871 31.5365C36.845 31.5365 43.2427 30.5613 47.3916 28.004L49.9518 25L51.7669 26.0152C68.3856 35.3101 69.9925 51.3612 68.6155 58.6605C68.5203 70.2757 61.6444 77.147 53.4684 80.8719C45.4165 84.5402 35.9073 85.2984 29.5607 84.9076C15.6153 85.2066 7.46199 81.1314 3.3179 75.1571C-0.572785 69.5482 -0.477629 62.894 0.762138 58.3081C-0.359487 52.2082 0.967583 46.3421 3.00117 41.5482C5.1011 36.598 8.03349 32.599 10.1718 30.3659L11.1559 29.3382ZM3.34721 58.4159C0.830783 66.6746 2.56078 83.036 29.6122 82.4127C41.7748 83.1918 66.1001 79.4832 66.1001 58.4159C67.4107 51.9753 66.1315 36.9124 50.5298 28.1863L49.069 29.9003C39.5067 36.1332 20.3703 33.9517 11.9974 32.0819C8.1179 36.1332 0.95662 47.072 3.34721 58.4159Z" fill="#592910"/>
<path d="M113.722 86.7971C119.245 71.8255 105.534 67.3609 97.9875 67C91.8221 73.3103 74.7602 79.1154 67 81.2292C73.9361 80.2393 86.695 90.6121 92.2074 95.9223C105.309 96.7884 112.009 90.1997 113.722 86.7971Z" fill="#EEF8FE"/>
<path fill-rule="evenodd" clip-rule="evenodd" d="M96.8713 64L98.027 64.0583C102.005 64.2591 107.812 65.5884 111.984 69.2158C114.119 71.0729 115.843 73.553 116.595 76.7556C117.343 79.9431 117.078 83.6299 115.609 87.833L115.563 87.9651L115.503 88.0913C113.384 92.5334 105.886 99.8764 92.0941 98.9141L91.1578 98.8487L90.4941 98.174C87.8858 95.5221 83.549 91.5956 79.0779 88.4801C76.841 86.9214 74.6375 85.613 72.648 84.7609C70.6028 83.8849 69.0671 83.6151 68.0488 83.7685L67 78.7977C70.6948 77.7355 76.64 75.7339 82.3803 73.2078C88.2272 70.6348 93.4576 67.6876 96.0783 64.8566L96.8713 64ZM73.1683 79.5087C81.4944 76.6565 93.0952 71.7957 97.9027 66.6024C105.262 66.9739 118.635 71.5694 113.248 86.98C111.578 90.4824 105.043 97.2644 92.2657 96.3728C88.1322 92.1704 79.8212 84.8875 73.1254 82.2082C71.1124 81.4027 69.2453 81.0133 67.6817 81.2488C69.1989 80.8126 71.0807 80.2238 73.1683 79.5087Z" fill="#592613"/>
<path d="M91.7717 129.544C71.5602 144.429 53.1167 130.127 46.4213 121.116C42.6552 118.445 27.9046 94.6656 21 83.1101C38.8263 85.6544 53.6397 78.7635 58.8182 75C76.6445 80.4703 88.2148 91.3792 91.7717 96.1498C99.4295 109.253 94.9625 123.873 91.7717 129.544Z" fill="#632C11"/>
<path fill-rule="evenodd" clip-rule="evenodd" d="M58.1857 74L58.7804 74.1799C76.9447 79.6742 88.7781 90.6324 92.4998 95.5526L92.5425 95.6091L92.5786 95.67C100.588 109.18 95.9093 124.16 92.5891 129.977L92.4547 130.213L92.2352 130.372C81.7305 137.997 71.5916 138.176 63.2269 135.238C55.0232 132.357 48.575 126.504 45.0761 121.919C44.496 121.472 43.8242 120.761 43.1126 119.923C42.3058 118.973 41.371 117.767 40.3483 116.377C38.3017 113.596 35.8663 110.029 33.3411 106.201C28.2891 98.5418 22.8458 89.7869 19.375 84.0612L18 81.7929L20.6287 82.1627C38.1452 84.6271 52.6953 77.9332 57.6808 74.3617L58.1857 74ZM58.6313 76.7678C53.1022 80.5021 39.4332 86.5191 22.8725 84.9602C26.3013 90.5659 31.0265 98.1161 35.4457 104.816C37.9612 108.629 40.3696 112.155 42.3791 114.886C43.3844 116.252 44.2807 117.407 45.0344 118.294C45.8116 119.209 46.3663 119.754 46.6938 119.983L46.8576 120.098L46.9778 120.257C50.2263 124.567 56.3453 130.153 64.0628 132.863C71.6495 135.527 80.8294 135.439 90.5313 128.496C93.5991 122.939 97.6563 109.243 90.4463 97.0142C87.0143 92.513 75.8528 82.1318 58.6313 76.7678Z" fill="#592812"/>
<path fill-rule="evenodd" clip-rule="evenodd" d="M22.4453 8.30395C23.8175 10.5814 24.6494 13.0468 25 14.6437L23.4961 15C23.1783 13.5525 22.4059 11.2589 21.1377 9.154C19.8637 7.03927 18.1536 5.21982 16 4.53148L16.4536 3C19.1127 3.8499 21.0791 6.03629 22.4453 8.30395Z" fill="#592910"/>
<path fill-rule="evenodd" clip-rule="evenodd" d="M36.0516 8.19907C37.4653 10.7016 37.9711 13.3064 38 14.9749L36.3784 15C36.3533 13.5513 35.9021 11.1891 34.6209 8.92122C33.3476 6.66717 31.2727 4.5346 28 3.44614L28.5383 2C32.2719 3.24177 34.63 5.68279 36.0516 8.19907Z" fill="#592910"/>
<path d="M41.2308 12L38 16.5763C38.5493 18.3842 39.7403 22 40.1095 22H44.2634L46 16.5763L41.2308 12Z" fill="#D3B82B"/>
<path fill-rule="evenodd" clip-rule="evenodd" d="M40.5103 11L47 16.5159L44.6562 23H39.5456C39.079 23 38.7672 22.7641 38.6613 22.6774C38.5257 22.5664 38.4264 22.4462 38.3632 22.3632C38.233 22.192 38.1164 21.99 38.0183 21.8045C37.8157 21.4218 37.5942 20.9213 37.3801 20.4019C36.948 19.3536 36.4968 18.1073 36.213 17.2799L36 16.659L40.5103 11ZM40.8617 14.5386L38.8029 17.1217C39.0628 17.8524 39.3907 18.7328 39.7028 19.4902C39.8793 19.9182 40.0418 20.2851 40.1777 20.5568H42.8845L44.0733 17.2683L40.8617 14.5386Z" fill="#592910"/>
<path d="M17.3763 15L14.7755 18.9661V19.4237L13 24L21.3804 23.2373L22 18.9661L17.3763 15Z" fill="#D3B82B"/>
<path fill-rule="evenodd" clip-rule="evenodd" d="M17.4014 13L24 18.5972L23.0734 24.9134L11 26L13.6011 19.3705V18.7308L17.4014 13ZM17.9198 16.8001L16.0993 19.5455V19.8839L14.8631 23.0346L20.9015 22.4911L21.314 19.6792L17.9198 16.8001Z" fill="#592910"/>
<path d="M36.3215 63.0665L22.7794 64.2794C21.9682 64.3521 21.4311 64.6529 21.1335 64.9138C20.9618 65.0643 20.9659 65.3079 21.0878 65.4982L26.7161 74.2864C29.8126 78.4606 32.9598 76.9182 34.212 75.5682C34.2544 75.5225 34.2871 75.4707 34.3121 75.4143L38.8409 65.1892C39.5968 63.0058 37.4762 62.8643 36.3215 63.0665Z" fill="#582912"/>
<path d="M35 70.0292C33.8 68.1652 29.1667 69.2525 27 70.0292L31.5 75L35 70.0292Z" fill="#EE7172"/>
<path d="M23 55.5C23 60.7467 19.4183 65 15 65C10.5817 65 7 60.7467 7 55.5C7 50.2533 10.5817 46 15 46C19.4183 46 23 50.2533 23 55.5Z" fill="#592812"/>
<path d="M53 81L40 85.338C43.7235 85.8338 46.9012 89.9859 48.0247 92H48.6667C50.8494 92 51.3951 90.1408 51.3951 89.2113C50.1111 86.4845 51.93 82.6009 53 81Z" fill="#6E3315"/>
<path d="M75.3882 86C73.8506 101.237 59.0514 108.793 51.844 110.667C51.844 112.165 49.2813 116.495 48 118.473L51.844 123C77.5985 119.503 84.6778 101.976 84.9981 93.6498C85.1263 91.6515 78.6449 87.7173 75.3882 86Z" fill="#F1F7FE" fill-opacity="0.05"/>
<path d="M60.1875 88.5802C61.3125 98.0815 55.8646 103.453 53 104.951V108C67.375 104.533 72.3229 90.8272 73 84.4074C72.625 82.9951 65.9688 82.214 62.6875 82C62.8125 83.1556 61.0729 86.8683 60.1875 88.5802Z" fill="#FDD904"/>
<path d="M86.0036 95C83.9955 115.317 63.8312 124.206 54 126.111C58.1416 130.428 69.0082 128.968 73.9238 127.698C93.126 119.063 89.9779 102.302 86.0036 95Z" fill="#FDD904"/>
<path fill-rule="evenodd" clip-rule="evenodd" d="M40.3457 51.3643C40.7929 51.0746 41.2563 50.809 41.7302 50.579C43.4051 49.7661 45.0476 49.4719 46.5658 49.9051C47.5729 50.1924 48.6282 49.6295 48.923 48.6477C49.2178 47.6659 48.6403 46.637 47.6332 46.3496C44.8889 45.5666 42.2298 46.1982 40.0367 47.2626C37.845 48.3263 35.9544 49.8961 34.592 51.2917C33.9903 51.9081 33.9536 52.6543 34.0284 53.1101C34.1017 53.5568 34.2981 53.9212 34.4841 54.1778C34.6752 54.4413 34.9411 54.7098 35.2835 54.9157C35.604 55.1084 36.1927 55.3611 36.9205 55.2238C38.2031 54.9817 39.9896 55.0026 41.863 55.1842C43.7037 55.3627 45.4792 55.6808 46.6678 55.9511C47.6897 56.1836 48.7114 55.5644 48.9498 54.5682C49.1882 53.572 48.5531 52.5759 47.5312 52.3435C46.1992 52.0404 44.2604 51.6938 42.2391 51.4978C41.6242 51.4382 40.9869 51.391 40.3457 51.3643Z" fill="#592613"/>
<path d="M102.792 26.5175C82.7869 10.2389 68.6164 28.2526 64.0318 39.2942V40.2407L62 79.9906C69.8771 80.243 81.5365 75.3636 86.3816 72.8924C112.764 57.7495 108.315 35.6663 102.792 26.5175Z" fill="#EEF8FE"/>
<path fill-rule="evenodd" clip-rule="evenodd" d="M61.1974 39.2951L61.3951 38.8275C63.8443 33.0335 68.9091 25.2213 76.3045 20.9959C80.0582 18.8512 84.4424 17.618 89.3377 18.1063C94.2202 18.5933 99.39 20.7702 104.772 25.0714L105.117 25.3473L105.348 25.7227C108.42 30.7226 111.151 39.1409 109.504 48.3971C107.835 57.7814 101.728 67.6804 87.737 75.5679L87.6826 75.5986L87.6268 75.6265C85.0585 76.9132 80.7433 78.7995 76.0293 80.3382C71.3698 81.8592 66.0569 83.1298 61.5937 82.9894L59 82.9077L61.1974 40.6829V39.2951ZM63.7415 40.7479L61.6744 80.4687C62.4889 80.4943 63.3431 80.467 64.2257 80.3946C72.0278 79.7547 82.0511 75.5941 86.4793 73.3757C113.319 58.244 108.793 36.1768 103.175 27.0348C82.8221 10.7681 68.4056 28.7686 63.7415 39.8022V40.7479Z" fill="#592613"/>
<path d="M29 2.5C29 3.88071 27.8807 5 26.5 5C25.1193 5 24 3.88071 24 2.5C24 1.11929 25.1193 0 26.5 0C27.8807 0 29 1.11929 29 2.5Z" fill="#592613"/>
<path d="M17.0922 53.9012C16.6456 50.8379 17.9296 49.3574 18.6274 49C20.3023 49 20.907 51.1443 21 52.2164C20.8883 56.2599 18.3483 55.0244 17.0922 53.9012Z" fill="white"/>
<path d="M17 55.5C17 56.3284 16.5523 57 16 57C15.4477 57 15 56.3284 15 55.5C15 54.6716 15.4477 54 16 54C16.5523 54 17 54.6716 17 55.5Z" fill="white"/>
<path d="M46 104.5C46 114.717 37.4934 123 27 123C16.5066 123 8 114.717 8 104.5C8 94.2827 16.5066 86 27 86C37.4934 86 46 94.2827 46 104.5Z" fill="#FCEE0F"/>
<path fill-rule="evenodd" clip-rule="evenodd" d="M48 104.5C48 115.822 38.598 125 27 125C15.402 125 6 115.822 6 104.5C6 93.1782 15.402 84 27 84C38.598 84 48 93.1782 48 104.5ZM27 122.826C37.3679 122.826 45.7727 114.621 45.7727 104.5C45.7727 94.379 37.3679 86.1742 27 86.1742C16.6321 86.1742 8.22727 94.379 8.22727 104.5C8.22727 114.621 16.6321 122.826 27 122.826Z" fill="#E9BC21"/>
<path fill-rule="evenodd" clip-rule="evenodd" d="M50 104.5C50 117.479 39.7025 128 27 128C14.2975 128 4 117.479 4 104.5C4 91.5213 14.2975 81 27 81C39.7025 81 50 91.5213 50 104.5ZM27 125.142C38.1576 125.142 47.2027 115.9 47.2027 104.5C47.2027 93.0998 38.1576 83.8581 27 83.8581C15.8424 83.8581 6.7973 93.0998 6.7973 104.5C6.7973 115.9 15.8424 125.142 27 125.142Z" fill="#582711"/>
<path d="M25.6191 88.7842L30.513 91.6097L17.6683 113.857L12.7744 111.032L25.6191 88.7842Z" fill="#FCF163"/>
<path d="M34.7705 93.5176L39.6644 96.3431L26.8197 118.591L21.9258 115.765L34.7705 93.5176Z" fill="#FCF163"/>
<path d="M23.917 111.038V112.673C23.917 112.854 24.0623 113 24.2413 113H25.5389C25.625 113 25.7075 112.966 25.7683 112.904C25.8291 112.843 25.8633 112.76 25.8633 112.673V111.038H26.5121V112.673C26.5121 112.854 26.6574 113 26.8365 113H28.1341C28.2201 113 28.3026 112.966 28.3635 112.904C28.4243 112.843 28.4585 112.76 28.4585 112.673V111.038H28.5675C31.1522 111.038 33 109.688 33 107.351C33 105.387 31.6933 104.313 30.1635 104.16V104.045C31.4221 103.728 32.3473 102.771 32.3473 101.181C32.3473 99.1777 30.8551 97.9615 28.5779 97.9615H28.4585V96.3269C28.4585 96.2402 28.4243 96.1571 28.3635 96.0958C28.3026 96.0344 28.2201 96 28.1341 96H26.8365C26.7505 96 26.668 96.0344 26.6071 96.0958C26.5463 96.1571 26.5121 96.2402 26.5121 96.3269V97.9615H25.7686V96.3269C25.7686 96.2402 25.7344 96.1571 25.6736 96.0958C25.6128 96.0344 25.5302 96 25.4442 96H24.2413C24.1553 96 24.0728 96.0344 24.012 96.0958C23.9511 96.1571 23.917 96.2402 23.917 96.3269V97.9615L21.3244 97.9759C21.2384 97.9759 21.1558 98.0104 21.095 98.0717C21.0342 98.133 21 98.2161 21 98.3028V99.5962C21 99.7753 21.1427 99.9231 21.3218 99.9231L22.3015 99.9165C22.5584 99.9183 22.8043 100.022 22.9854 100.206C23.1665 100.39 23.2682 100.638 23.2682 100.897V108.096C23.2682 108.356 23.1656 108.606 22.9831 108.79C22.8006 108.974 22.5531 109.077 22.295 109.077L21.3244 109.091C21.2384 109.091 21.1558 109.126 21.095 109.187C21.0342 109.248 21 109.332 21 109.418V110.726C21 110.906 21.1453 111.053 21.3244 111.053L23.917 111.038ZM25.7686 99.9061H27.9991C29.1747 99.9061 29.8651 100.557 29.8651 101.622C29.8651 102.761 29.1189 103.403 27.4295 103.403H25.7686V99.9061ZM25.7686 105.204H28.1561C29.6315 105.204 30.4347 105.962 30.4347 107.196C30.4347 108.443 29.6224 109.093 27.6345 109.093H25.7686V105.205V105.204Z" fill="#58280F"/>
<path fill-rule="evenodd" clip-rule="evenodd" d="M11.2366 33.0043C9.65133 32.9209 8.40385 34.0445 7.20717 36.9542C7.19719 36.9785 7.18722 37.0028 7.17725 37.0273L7.0656 37.2936C6.85776 37.7769 6.57415 38.3802 6.25276 39.0639C5.36381 40.9549 4.18583 43.4607 3.52272 45.7426C3.07993 47.2664 3.01814 48.6366 2.96476 49.8205C2.93234 50.5395 2.90302 51.1898 2.79332 51.7641C2.53711 53.1053 2.63639 53.869 2.73459 54.6245C2.81116 55.2136 2.88708 55.7976 2.79332 56.6465C0.772133 66.2617 2.84591 72.4582 6.38667 76.3166C10.315 80.5974 16.0491 82 20 82C14.4101 80.5959 10.8917 77.6908 8.76228 74.3126C5.50872 69.1511 5.49792 62.8852 6.29557 59.1819C5.27754 51.0245 9.29324 42.0039 12.477 36.7629C13.1029 35.7325 13.6967 34.8482 14.2137 34.1453C13.0867 33.4629 12.1103 33.0503 11.2366 33.0043Z" fill="#FDEE86"/>
<path d="M46.7231 36.4386C39.0212 39.662 22.3652 36.232 15 34.114C29.8988 38.2053 45.6183 32.4094 51.6157 29C57.55 30.6117 62.1901 37.4201 63.7683 40.6228C68.5023 50.2208 67.4356 61.599 64.3996 67.5877C63.7659 68.8378 62.8549 69.9508 61.7862 70.9704L60.9275 72.0819L57.7709 74.7164L53.8253 76.731C46.8781 81.5124 40.4151 81.0382 33.7813 82C66.7355 66.6269 56.1401 45.2203 46.7231 36.4386Z" fill="#E4C41C"/>
<path d="M45.2715 104.954C59.4579 101.34 59.3783 92.3371 56.4112 85.7795C55.7801 84.3846 53.9142 85.0015 53.7731 86.5271C53.1462 93.304 49.9106 95.0411 47.8853 94.9891C47.7113 94.9846 47.5307 94.9934 47.3619 95.0364C40.0285 96.9037 41.6755 101.74 43.8195 104.489C44.1581 104.923 44.7393 105.09 45.2715 104.954Z" fill="#FDD904"/>
<path fill-rule="evenodd" clip-rule="evenodd" d="M56.9193 84.1978C57.511 84.4512 57.9712 84.9243 58.2509 85.5393C59.8481 89.0498 60.7647 93.414 59.164 97.4694C57.54 101.584 53.4795 105.006 45.9446 106.915C44.9694 107.162 43.8355 106.877 43.1423 105.993C41.9685 104.496 40.7372 102.208 41.0491 99.8699C41.389 97.3209 43.439 95.3333 47.4737 94.3116L47.7848 95.5376L47.4737 94.3116C47.8066 94.2272 48.1225 94.2189 48.3558 94.2248C49.0204 94.2418 50.0204 93.9693 50.9513 92.9343C51.8901 91.8906 52.8166 89.9997 53.1225 86.7109C53.2431 85.4139 54.1166 84.4355 55.186 84.1133C55.7251 83.9509 56.3399 83.9496 56.9193 84.1978ZM55.9172 86.5351C55.8277 86.5621 55.6684 86.6802 55.6438 86.9449C55.3045 90.5925 54.2434 93.0589 52.8348 94.625C51.4183 96.1998 49.711 96.7898 48.2912 96.7536C48.1663 96.7504 48.1103 96.7599 48.0959 96.7636C44.583 97.6532 43.7067 99.0964 43.559 100.204C43.3832 101.522 44.1028 103.116 45.1356 104.433C45.1386 104.437 45.1505 104.45 45.1851 104.461C45.2222 104.473 45.2716 104.476 45.3221 104.463L45.6334 105.689L45.3221 104.463C52.3878 102.673 55.5866 99.6371 56.8084 96.5415C58.0536 93.3868 57.4023 89.7875 55.9457 86.586C55.9354 86.5632 55.9262 86.5466 55.9187 86.5347C55.9182 86.5348 55.9177 86.535 55.9172 86.5351ZM55.9466 86.5295C55.9466 86.5296 55.946 86.5296 55.9449 86.5295C55.9461 86.5295 55.9466 86.5295 55.9466 86.5295ZM55.9018 86.5118C55.8991 86.5098 55.8978 86.5084 55.8979 86.5083C55.898 86.5081 55.8993 86.5091 55.9018 86.5118Z" fill="#59290C"/>
<path d="M50 26.4917C44.7161 33.6775 22.5323 32.3223 12.1008 30.7464L11 16.4064L20.2782 22.237L29.871 9L41.5081 20.9763L48.8992 14.2002L50 26.4917Z" fill="#E9CC20"/>
<path fill-rule="evenodd" clip-rule="evenodd" d="M9.61941 33.442L8 12.4225L19.3901 19.5543L29.2484 6L41.1371 18.191L50.3774 9.75029L52 27.8021L51.4405 28.5603C49.6471 30.9905 46.6541 32.4356 43.5121 33.3361C40.3023 34.256 36.536 34.7198 32.722 34.9032C25.0854 35.2704 16.8494 34.5302 11.578 33.7368L9.61941 33.442ZM41.0371 21.6504L29.5263 9.84696L20.0376 22.8929L10.8601 17.1465L11.949 31.2796C22.2672 32.8327 44.2103 34.1684 49.4368 27.0863L48.348 14.9722L41.0371 21.6504Z" fill="#592910"/>
<path fill-rule="evenodd" clip-rule="evenodd" d="M30.335 16.8452L36.2735 22.7838L30.335 28.7223L24.3964 22.7838L30.335 16.8452ZM30.335 20.4153L27.9665 22.7838L30.335 25.1522L32.7034 22.7838L30.335 20.4153Z" fill="#58270D"/>
<path d="M25 32V17L22 20.5897V32H25Z" fill="#FDEE86"/>
<path d="M16 31.6286V19.5571L17.1429 20.6714L18 19V32L16 31.6286Z" fill="#FDEE86"/>
<path d="M62 81C106.674 58.5647 99.3343 30.9853 90.0805 20C110.503 22.7886 110.396 41.9706 107.79 51.213C102.047 74.1553 74.8702 80.6303 62 81Z" fill="#E0F1F6" fill-opacity="0.63"/>
<path fill-rule="evenodd" clip-rule="evenodd" d="M84.3458 50.4819C79.1732 61.484 70.7042 72.3479 64.4889 79L62 76.5926C68.0669 70.0994 76.2828 59.535 81.2479 48.9741C83.7321 43.6903 85.3462 38.5244 85.5452 33.9375C85.7421 29.3991 84.5586 25.5075 81.5141 22.5117L83.9014 20C87.8101 23.8461 89.2056 28.7998 88.976 34.0916C88.7485 39.335 86.9305 44.9842 84.3458 50.4819Z" fill="#CAEAEC"/>
<path fill-rule="evenodd" clip-rule="evenodd" d="M95.8762 45.2523C91.8324 45.6282 87.9425 46.928 85.6347 48L84 45.2104C86.6186 43.994 90.9373 42.5478 95.5092 42.1228C100.062 41.6996 105.19 42.267 109 45.4596L106.578 47.7508C103.834 45.4513 99.9389 44.8746 95.8762 45.2523Z" fill="#CAEAEC"/>
<path fill-rule="evenodd" clip-rule="evenodd" d="M102.196 73.789C99.6563 75.1594 97.5403 77.4445 96.388 79.1292L94.3043 77.7041C95.6142 75.789 98.0086 73.1799 100.998 71.5673C104.028 69.9325 107.803 69.2702 111.568 71.6L110.24 73.7467C107.468 72.0314 104.695 72.4408 102.196 73.789Z" fill="#CAEAEC"/>
<path d="M91.6993 129.466C61.4134 133.569 53.9475 113.011 54.0003 102.219C58.9423 100.809 59.2275 94.1521 58.7523 91C96.8948 97.9239 96.6097 119.529 91.6993 129.466Z" fill="#FDD904" fill-opacity="0.05"/>
<path fill-rule="evenodd" clip-rule="evenodd" d="M96.1937 79.0609C89.2211 78.27 81.0011 79.7918 75.5501 81.459L75 79.6954C80.5808 77.9885 89.0785 76.396 96.4059 77.2271C100.073 77.6431 103.531 78.6753 106.179 80.684C108.859 82.7174 110.638 85.7 111 89.8409L109.143 90C108.824 86.3549 107.293 83.8547 105.045 82.1492C102.764 80.419 99.6767 79.456 96.1937 79.0609Z" fill="#CAEAEC"/>
</svg>
